<svg xmlns="http://www.w3.org/2000/svg" viewBox="0 0 200 48" fill="none">
  <!-- NYC Skeptics Logo: Torch of reason -->
  <defs>
    <linearGradient id="torch-grad" x1="0" y1="0" x2="0" y2="1">
      <stop offset="0%" stop-color="#FBBF24"/>
      <stop offset="100%" stop-color="#F87171"/>
    </linearGradient>
  </defs>
  <!-- Torch flame -->
  <path d="M20 6c-2 4-4 8-3 12 1-2 3-3 4-2-1-3 0-6 2-8 1 3 3 5 3 8 1-1 3-2 3-4 1 4-1 8-4 10h-1c-3-2-5-6-4-10-2 2-3 5-2 8-3-3-3-8 2-14z" fill="url(#torch-grad)"/>
  <!-- Torch handle -->
  <rect x="17" y="26" width="8" height="14" rx="2" fill="currentColor" opacity="0.6"/>
  <rect x="15" y="25" width="12" height="3" rx="1.5" fill="currentColor" opacity="0.8"/>
  <!-- Text: NYC Skeptics -->
  <text x="42" y="28" font-family="'DM Serif Display', Georgia, serif" font-size="20" fill="currentColor" font-weight="400">NYC Skeptics</text>
</svg>
